<?xml version="1.0" encoding="utf-8"?>
<svg version="1.1" xmlns:xlink="http://www.w3.org/1999/xlink" width="16px" height="16px" xmlns="http://www.w3.org/2000/svg">
  <g transform="matrix(1 0 0 1 -979 -27 )">
    <path d="M 9.8125 9.8125  C 10.6554487179487 8.96955128205128  11.0769230769231 7.9551282051282  11.0769230769231 6.76923076923077  C 11.0769230769231 5.58333333333333  10.6554487179487 4.56891025641026  9.8125 3.72596153846154  C 8.96955128205128 2.88301282051282  7.95512820512821 2.46153846153846  6.76923076923077 2.46153846153846  C 5.58333333333333 2.46153846153846  4.56891025641026 2.88301282051282  3.72596153846154 3.72596153846154  C 2.88301282051282 4.56891025641026  2.46153846153846 5.58333333333333  2.46153846153846 6.76923076923077  C 2.46153846153846 7.9551282051282  2.88301282051282 8.96955128205128  3.72596153846154 9.8125  C 4.56891025641026 10.6554487179487  5.58333333333333 11.0769230769231  6.76923076923077 11.0769230769231  C 7.95512820512821 11.0769230769231  8.96955128205128 10.6554487179487  9.8125 9.8125  Z M 15.6442307692308 13.9038461538462  C 15.8814102564103 14.1410256410256  16 14.4294871794872  16 14.7692307692308  C 16 15.1025641025641  15.8782051282051 15.3910256410256  15.6346153846154 15.6346153846154  C 15.3910256410256 15.8782051282051  15.1025641025641 16  14.7692307692308 16  C 14.4230769230769 16  14.1346153846154 15.8782051282051  13.9038461538462 15.6346153846154  L 10.6057692307692 12.3461538461538  C 9.45833333333333 13.1410256410256  8.17948717948718 13.5384615384615  6.76923076923077 13.5384615384615  C 5.8525641025641 13.5384615384615  4.97596153846154 13.3605769230769  4.13942307692308 13.0048076923077  C 3.30288461538462 12.6490384615385  2.58173076923077 12.1682692307692  1.97596153846154 11.5625  C 1.37019230769231 10.9567307692308  0.889423076923077 10.2355769230769  0.533653846153846 9.39903846153846  C 0.177884615384615 8.5625  0 7.68589743589743  0 6.76923076923077  C 0 5.8525641025641  0.177884615384615 4.97596153846154  0.533653846153846 4.13942307692308  C 0.889423076923077 3.30288461538462  1.37019230769231 2.58173076923077  1.97596153846154 1.97596153846154  C 2.58173076923077 1.37019230769231  3.30288461538462 0.889423076923077  4.13942307692308 0.533653846153847  C 4.97596153846154 0.177884615384615  5.8525641025641 0  6.76923076923077 0  C 7.68589743589744 0  8.5625 0.177884615384615  9.39903846153846 0.533653846153847  C 10.2355769230769 0.889423076923077  10.9567307692308 1.37019230769231  11.5625 1.97596153846154  C 12.1682692307692 2.58173076923077  12.6490384615385 3.30288461538462  13.0048076923077 4.13942307692308  C 13.3605769230769 4.97596153846154  13.5384615384615 5.8525641025641  13.5384615384615 6.76923076923077  C 13.5384615384615 8.17948717948718  13.1410256410256 9.45833333333333  12.3461538461538 10.6057692307692  L 15.6442307692308 13.9038461538462  Z " fill-rule="nonzero" fill="#999999" stroke="none" transform="matrix(1 0 0 1 979 27 )" />
  </g>
</svg>